/* XPM */
static char * start_xpm[] = {
"48 20 77 1",
" 	c #FFFFFF",
".	c #F8F8F8",
"+	c #C9C9C9",
"@	c #CECECE",
"#	c #DFDFDF",
"$	c #848484",
"%	c #6F6F6F",
"&	c #C3C3C3",
"*	c #797979",
"=	c #424242",
"-	c #E5E5E5",
";	c #989898",
">	c #4D4D4D",
",	c #2C2C2C",
"'	c #3A3A3A",
")	c #909090",
"!	c #727272",
"~	c #2E2E2E",
"{	c #212121",
"]	c #282828",
"^	c #444444",
"/	c #AFAFAF",
"(	c #949494",
"_	c #3C3C3C",
":	c #121212",
"<	c #0D0D0D",
"[	c #191919",
"}	c #292929",
"|	c #5A5A5A",
"1	c #5F5F5F",
"2	c #1B1B1B",
"3	c #2F2F2F",
"4	c #161616",
"5	c #B9B9B9",
"6	c #ECECEC",
"7	c #8C8C8C",
"8	c #1C1C1C",
"9	c #F2F2F2",
"0	c #202020",
"a	c #151515",
"b	c #AAAAAA",
"c	c #5C5C5C",
"d	c #464646",
"e	c #1D1D1D",
"f	c #545454",
"g	c #9D9D9D",
"h	c #171717",
"i	c #363636",
"j	c #D4D4D4",
"k	c #343434",
"l	c #4F4F4F",
"m	c #626262",
"n	c #323232",
"o	c #242424",
"p	c #DADADA",
"q	c #BEBEBE",
"r	c #3F3F3F",
"s	c #1F1F1F",
"t	c #575757",
"u	c #383838",
"v	c #B4B4B4",
"w	c #1A1A1A",
"x	c #252525",
"y	c #232323",
"z	c #808080",
"A	c #4A4A4A",
"B	c #1E1E1E",
"C	c #0C0C0C",
"D	c #656565",
"E	c #A6A6A6",
"F	c #7D7D7D",
"G	c #484848",
"H	c #131313",
"I	c #111111",
"J	c #888888",
"K	c #686868",
"L	c #2B2B2B",
"                                                ",
"                                                ",
"                                                ",
"                         .+@                    ",
"                         #$%&                   ",
"                        .@*=%-                  ",
"                        -;>,').                 ",
"                       .+!~{]^/                 ",
"                       -(_:<[}|@         .      ",
"                      .&1223[4}!-       #5.     ",
"             6@6      67}8*9!0a,79     .bcb     ",
"            65!b      &def6  g,hib.    j!kl&    ",
"           -/mnm     6!o^p    qrsd+   .;,[om-   ",
"          #gt}eu5    b'r+      p|~1-  vkwxsyz.  ",
"         #)AB<C2%   #D=E        -FGz9jl~!v%}]g  ",
"        #FiHI{'w~+  gAJ          .bzEJmE. 9E'_q ",
"       jDs[,F+jcoK @Kz9            p&qp     @tK-",
"      v^L_)p.  pmdvb)6              9.       #)v",
"    .(ttE-.     p$75p                         6#",
"   .q;q6         6@-                            "};
