/* XPM */
static char * app_16x16_xpm[] = {
"16 16 5 1",
" 	c None",
".	c #000000",
"+	c #18FFFF",
"@	c #BEBEBE",
"#	c #FFFFFF",
"                ",
"                ",
"................",
".++++++++++++++.",
"................",
".@#@#@#@#@#@#@#.",
".#@#@#@#@#@#@#@.",
".@#@#@#@#@#@#@#.",
".#@#@#@#@#@#@#@.",
".@#@#@#@#@#@#@#.",
".#@#@#@#@#@#@#@.",
".@#@#@#@#@#@#@#.",
".#@#@#@#@#@#@#@.",
"................",
"                ",
"                "};
