/* XPM */
static char * app_32x32_xpm[] = {
"32 32 9 1",
" 	c None",
".	c #000000",
"+	c #18FFFF",
"@	c #BEBEBE",
"#	c #7E7E7E",
"$	c #FFFFFF",
"%	c #0013FF",
"&	c #FE0000",
"*	c #FFFE00",
"                                ",
"                                ",
"                                ",
" .............................. ",
" .+@+@+@+@+@+@+@+@+@+@+@+@+@+@.#",
" .@+@+@+@+@+@+@+@+@+@+@+@+@+@+.#",
" ..............................#",
" .$$$$$$$$$$$$$$$$$$$$$$$$$$$$.#",
" .$$$$$$$$$$$$$$$$$$$$$$$$$$$$.#",
" .$$$$...$$$$$$...$$$$$###.$$$.#",
" .$$$.$$.$$$$$.##.$$$$$#%%.$$$.#",
" .$$......$$$.##..$$$$$#%%.$$$.#",
" .$$.@@@@.$$$#..$.$$$$#####.$$.#",
" .$$#.....$$$$$...$$$$......$$.#",
" .$$$$$$$$$$$$$$$$$$$$$$$$$$$$.#",
" .$$......$$$......$$$......$$.#",
" .$$$$$$$$$$$$$$$$$$$$$$$$$$$$.#",
" .$$$$$$$$$$$$$$$$$$$$$$$$$$$$.#",
" .$$$$$$.$$$$$.$$..$$$$...$$$$.#",
" .$$$$$##$$$$.$$.&.$$$.+%+.$$$.#",
" .$$$$#$#$$$$.$.*.$$$$.+%%.$$$.#",
" .$$$#.#.$$$$$.*.$$$$$.+++.$$$.#",
" .$$##$$##$$$$..$$$$$$$...$$$$.#",
" .$$$$$$$$$$$$$$$$$$$$$$$$$$$$.#",
" .$$......$$$......$$$......$$.#",
" .$$$$$$$$$$$$$$$$$$$$$$$$$$$$.#",
" .$$$$$$$$$$$$$$$$$$$$$$$$$$$$.#",
" ..............................#",
"  ##############################",
"                                ",
"                                ",
"                                "};
