/* XPM */
static char * folder_16x16_xpm[] = {
"16 16 5 1",
" 	c None",
".	c #000000",
"+	c #FFFE00",
"@	c #FFFFFF",
"#	c #BEBEBE",
"                ",
"                ",
"                ",
"   .....        ",
"  .+@+@+.       ",
" .............  ",
" .+@+@+@+@+@+@. ",
" .@+@+@+@+@+@+. ",
" .+@+@+@+@+@+@. ",
" .@+@+@+@+@+@+. ",
" .+@+@+@+@+@+@. ",
" .@+@+@+@+@+@+. ",
" .############. ",
"  ............. ",
"                ",
"                "};
