/* XPM */
static char * bl_xpm[] = {
"23 23 4 1",
" 	c None",
".	c #000000",
"+	c #C0C0C0",
"@	c #808080",
"....++++++++++++++++++@",
".++.++++++++++++++++++@",
".++.+++++++++++++++++++",
".++.+++++++++++++++++++",
".++.+++++++++++++++++++",
".++.+++++++++++++++++++",
".++.+++++++++++++++++++",
".++.+++++++++++++++++++",
".++.+++++++++++++++++++",
".++.+++++++++++++++++++",
".++.+++++++++++++++++++",
".++.+++++++++++++++++++",
".++.+++++++++++++++++++",
".++.+++++++++++++++++++",
".++.+++++++++++++++++++",
".++.+++++++++++++++++++",
".++.+++++++++++++++++++",
".++.+++++++++++++++++++",
".++.+++++++++++++++++++",
".++....................",
".+++++++++++++++++++++.",
".+++++++++++++++++++++.",
"......................."};
