/* XPM */
static char * br_xpm[] = {
"23 23 3 1",
" 	c None",
".	c #C0C0C0",
"+	c #000000",
"...................++++",
"...................+..+",
"...................+..+",
"...................+..+",
"...................+..+",
"...................+..+",
"...................+..+",
"...................+..+",
"...................+..+",
"...................+..+",
"...................+..+",
"...................+..+",
"...................+..+",
"...................+..+",
"...................+..+",
"...................+..+",
"...................+..+",
"...................+..+",
"...................+..+",
"++++++++++++++++++++..+",
"+.....................+",
"+.....................+",
"+++++++++++++++++++++++"};
