/* XPM */
static char * tr_xpm[] = {
"23 23 5 1",
" 	c None",
".	c #000000",
"+	c #C0C0C0",
"@	c #FFFFFF",
"#	c #808080",
".......................",
".+++++++++++++++++++++.",
".+++++++++++++++++++++.",
"....................++.",
".@@@@@@@@@@@@@@@@@#.++.",
".@+++++++++++++++##.++.",
".@+++++++++++++++##.++.",
".@+++++++++++++++##.++.",
".@+++++++++++++++##.++.",
".@+++++++++++++++##.++.",
".@+++++++.+++++++##.++.",
".@++++++...++++++##.++.",
".@+++++.....+++++##.++.",
".@++++.......++++##.++.",
".@+++++++++++++++##.++.",
".@+++++++++++++++##.++.",
".@+++++++++++++++##.++.",
".@+++++++++++++++##.++.",
".@+++++++++++++++##.++.",
".@+++++++++++++++##.++.",
".@#################.++.",
".##################.++.",
"......................."};
