/* XPM */
static char * menuButtonA_xpm[] = {
"19 38 5 1",
" 	c None",
".	c #C0C0C0",
"+	c #000000",
"@	c #FFFFFF",
"#	c #808080",
"..................+",
"..................+",
"..................+",
"..................+",
"..................+",
"..................+",
"..................+",
"..+++++++++++++...+",
"..+@@@@@@@@@@@+#..+",
"..+++++++++++++#..+",
"...#############..+",
"..................+",
"..................+",
"..................+",
"..................+",
"..................+",
"..................+",
"..................+",
"+++++++++++++++++++",
"..................+",
"..................+",
"..................+",
"..................+",
"..................+",
"..................+",
"..................+",
"..@@@@@@@@@@@@@...+",
"..@+++++++++++@#..+",
"..@@@@@@@@@@@@@#..+",
"...#############..+",
"..................+",
"..................+",
"..................+",
"..................+",
"..................+",
"..................+",
"..................+",
"+++++++++++++++++++"};
