/* XPM */
static char * minimizeA_xpm[] = {
"19 38 5 1",
" 	c #000000",
".	c #FFFFFF",
"+	c #808080",
"@	c #C0C0C0",
"#	c #848284",
" .................+",
" .@@@@@@@@@@@@@@@++",
" .@@@@@@@@@@@@@@@++",
" .@@@@@@@@@@@@@@@++",
" .@@@@@@@@@@@@@@@++",
" .@@@@@@@@@@@@@@@++",
" .@@@@@@@@@@@@@@@++",
" .@@@@       @@@@++",
" .@@@@@     @@@@@++",
" .@@@@@@   @@@@@@++",
" .@@@@@@@ @@@@@@@++",
" .@@@@@@@@@@@@@@@++",
" .@@@@@@@@@@@@@@@++",
" .@@@@@@@@@@@@@@@++",
" .@@@@@@@@@@@@@@@++",
" .@@@@@@@@@@@@@@@++",
" .+++++++++++++++++",
" ++++++++++++++++++",
"                   ",
" #################.",
" #@@@@@@@@@@@@@@@..",
" #@@@@@@@@@@@@@@@..",
" #@@@@@@@@@@@@@@@..",
" #@@@@@@@@@@@@@@@..",
" #@@@@@@@@@@@@@@@..",
" #@@@@@@@@@@@@@@@..",
" #@@@@       @@@@..",
" #@@@@@     @@@@@..",
" #@@@@@@   @@@@@@..",
" #@@@@@@@ @@@@@@@..",
" #@@@@@@@@@@@@@@@..",
" #@@@@@@@@@@@@@@@..",
" #@@@@@@@@@@@@@@@..",
" #@@@@@@@@@@@@@@@..",
" #@@@@@@@@@@@@@@@..",
" #.................",
" ..................",
"                   "};
