/* XPM */
static char * restoreA_xpm[] = {
"19 38 4 1",
" 	c #000000",
".	c #FFFFFF",
"+	c #848284",
"@	c #C6C3C6",
" .................+",
" .@@@@@@@@@@@@@@@++",
" .@@@@@@@@@@@@@@@++",
" .@@@@@@@@@@@@@@@++",
" .@@@@@@@ @@@@@@@++",
" .@@@@@@   @@@@@@++",
" .@@@@@     @@@@@++",
" .@@@@       @@@@++",
" .@@@@@@@@@@@@@@@++",
" .@@@@@@@@@@@@@@@++",
" .@@@@       @@@@++",
" .@@@@@     @@@@@++",
" .@@@@@@   @@@@@@++",
" .@@@@@@@ @@@@@@@++",
" .@@@@@@@@@@@@@@@++",
" .@@@@@@@@@@@@@@@++",
" .+++++++++++++++++",
" ++++++++++++++++++",
"                   ",
" +++++++++++++++++.",
" +@@@@@@@@@@@@@@@..",
" +@@@@@@@@@@@@@@@..",
" +@@@@@@@@@@@@@@@..",
" +@@@@@@@ @@@@@@@..",
" +@@@@@@   @@@@@@..",
" +@@@@@     @@@@@..",
" +@@@@       @@@@..",
" +@@@@@@@@@@@@@@@..",
" +@@@@@@@@@@@@@@@..",
" +@@@@       @@@@..",
" +@@@@@     @@@@@..",
" +@@@@@@   @@@@@@..",
" +@@@@@@@ @@@@@@@..",
" +@@@@@@@@@@@@@@@..",
" +@@@@@@@@@@@@@@@..",
" +.................",
" ..................",
"                   "};
